<?xml version="1.0" standalone="no"?><!DOCTYPE svg PUBLIC "-//W3C//DTD SVG 1.1//EN" "http://www.w3.org/Graphics/SVG/1.1/DTD/svg11.dtd"><svg width="100%" height="100%" viewBox="0 0 48 48" version="1.1" xmlns="http://www.w3.org/2000/svg" xmlns:xlink="http://www.w3.org/1999/xlink" xml:space="preserve" style="fill-rule:evenodd;clip-rule:evenodd;stroke-linejoin:round;stroke-miterlimit:1.41421;"><path d="M34,24l-10,0l0,10l10,0l0,-10ZM32,2l0,4l-16,0l0,-4l-4,0l0,4l-2,0c-2.21,0 -3.98,1.79 -3.98,4l-0.02,28c0,2.21 1.79,4 4,4l28,0c2.21,0 4,-1.79 4,-4l0,-28c0,-2.21 -1.79,-4 -4,-4l-2,0l0,-4l-4,0ZM38,38l-28,0l0,-22l28,0l0,22Z" style="fill:#67b2ec;fill-rule:nonzero;"/></svg>