<?xml version="1.0" standalone="no"?><!DOCTYPE svg PUBLIC "-//W3C//DTD SVG 1.1//EN" "https://www.w3.org/Graphics/SVG/1.1/DTD/svg11.dtd"><svg width="100%" height="100%" viewBox="0 0 48 48" version="1.1" xmlns="https://www.w3.org/2000/svg" xmlns:xlink="https://www.w3.org/1999/xlink" xml:space="preserve" style="fill-rule:evenodd;clip-rule:evenodd;stroke-linejoin:round;stroke-miterlimit:1.41421;"><path d="M32,22c3.31,0 5.98,-2.69 5.98,-6c0,-3.31 -2.67,-6 -5.98,-6c-3.31,0 -6,2.69 -6,6c0,3.31 2.69,6 6,6ZM16,22c3.31,0 5.98,-2.69 5.98,-6c0,-3.31 -2.67,-6 -5.98,-6c-3.31,0 -6,2.69 -6,6c0,3.31 2.69,6 6,6ZM16,26c-4.67,0 -14,2.34 -14,7l0,5l28,0l0,-5c0,-4.66 -9.33,-7 -14,-7ZM32,26c-0.58,0 -1.23,0.04 -1.93,0.11c2.32,1.67 3.93,3.92 3.93,6.89l0,5l12,0l0,-5c0,-4.66 -9.33,-7 -14,-7Z" style="fill:#67b2ec;fill-rule:nonzero;"/></svg>