<?xml version="1.0" standalone="no"?><!DOCTYPE svg PUBLIC "-//W3C//DTD SVG 1.1//EN" "http://www.w3.org/Graphics/SVG/1.1/DTD/svg11.dtd"><svg width="100%" height="100%" viewBox="0 0 140 140" version="1.1" xmlns="http://www.w3.org/2000/svg" xmlns:xlink="http://www.w3.org/1999/xlink" xml:space="preserve" style="fill-rule:evenodd;clip-rule:evenodd;stroke-linejoin:round;stroke-miterlimit:1.41421;"><g id="Layer1"><path d="M101.111,30l-62.2222,0c-4.91111,0 -8.88889,3.97778 -8.88889,8.88889l0,62.2222c0,4.91111 3.97778,8.88889 8.88889,8.88889l62.2222,0c4.91111,0 8.88889,-3.97778 8.88889,-8.88889l0,-62.2222c0,-4.91111 -3.97778,-8.88889 -8.88889,-8.88889ZM56.6667,92.2222l-8.88889,0l0,-31.1111l8.88889,0l0,31.1111ZM74.4444,92.2222l-8.88889,0l0,-44.4444l8.88889,0l0,44.4444ZM92.2222,92.2222l-8.88889,0l0,-17.7778l8.88889,0l0,17.7778Z" style="fill:#67b2ec;fill-rule:nonzero;"/></g></svg>