<?xml version="1.0" standalone="no"?><!DOCTYPE svg PUBLIC "-//W3C//DTD SVG 1.1//EN" "http://www.w3.org/Graphics/SVG/1.1/DTD/svg11.dtd"><svg width="100%" height="100%" viewBox="0 0 140 140" version="1.1" xmlns="http://www.w3.org/2000/svg" xmlns:xlink="http://www.w3.org/1999/xlink" xml:space="preserve" style="fill-rule:evenodd;clip-rule:evenodd;stroke-linejoin:round;stroke-miterlimit:1.41421;"><g id="Layer1"><path d="M99.71,73.9c0.16,-1.28 0.28,-2.58 0.28,-3.9c0,-1.32 -0.12,-2.62 -0.28,-3.9l8.46,-6.62c0.76,-0.6 0.98,-1.68 0.48,-2.56l-8,-13.86c-0.5,-0.86 -1.54,-1.22 -2.44,-0.86l-9.96,4.02c-2.06,-1.58 -4.32,-2.92 -6.76,-3.94l-1.5,-10.6c-0.18,-0.94 -1,-1.68 -2,-1.68l-16,0c-1,0 -1.82,0.74 -1.98,1.68l-1.5,10.6c-2.44,1.02 -4.7,2.34 -6.76,3.94l-9.96,-4.02c-0.9,-0.34 -1.94,0 -2.44,0.86l-8,13.86c-0.5,0.86 -0.28,1.94 0.48,2.56l8.44,6.62c-0.16,1.28 -0.28,2.58 -0.28,3.9c0,1.32 0.12,2.62 0.28,3.9l-8.44,6.62c-0.76,0.6 -0.98,1.68 -0.48,2.56l8,13.86c0.5,0.86 1.54,1.22 2.44,0.86l9.96,-4.02c2.06,1.58 4.32,2.92 6.76,3.94l1.5,10.6c0.16,0.94 0.98,1.68 1.98,1.68l16,0c1,0 1.82,-0.74 1.98,-1.68l1.5,-10.6c2.44,-1.02 4.7,-2.34 6.76,-3.94l9.96,4.02c0.9,0.34 1.94,0 2.44,-0.86l8,-13.86c0.5,-0.86 0.28,-1.94 -0.48,-2.56l-8.44,-6.62l0,0ZM69.99,84c-7.74,0 -14,-6.26 -14,-14c0,-7.74 6.26,-14 14,-14c7.74,0 14,6.26 14,14c0,7.74 -6.26,14 -14,14Z" style="fill:#67b2ec;fill-rule:nonzero;"/></g></svg>