<?xml version="1.0" standalone="no"?><!DOCTYPE svg PUBLIC "-//W3C//DTD SVG 1.1//EN" "http://www.w3.org/Graphics/SVG/1.1/DTD/svg11.dtd"><svg width="100%" height="100%" viewBox="0 0 140 140" version="1.1" xmlns="http://www.w3.org/2000/svg" xmlns:xlink="http://www.w3.org/1999/xlink" xml:space="preserve" style="fill-rule:evenodd;clip-rule:evenodd;stroke-linejoin:round;stroke-miterlimit:1.41421;"><g id="Layer1"><path d="M94.0964,86.5863c-3.05221,0 -5.80321,1.18474 -7.89157,3.09237l-28.6145,-16.6867c0.220884,-0.903614 0.361446,-1.84739 0.361446,-2.81124c0,-0.963855 -0.140562,-1.90763 -0.361446,-2.81124l28.3133,-16.5261c2.14859,2.00803 5.02008,3.25301 8.19277,3.25301c6.64659,0 12.0482,-5.40161 12.0482,-12.0482c0,-6.64659 -5.40161,-12.0482 -12.0482,-12.0482c-6.64659,0 -12.0482,5.40161 -12.0482,12.0482c0,0.963855 0.140562,1.90763 0.361446,2.81124l-28.3133,16.5261c-2.14859,-2.00803 -5.02008,-3.25301 -8.19277,-3.25301c-6.64659,0 -12.0482,5.40161 -12.0482,12.0482c0,6.64659 5.40161,12.0482 12.0482,12.0482c3.17269,0 6.04418,-1.24498 8.19277,-3.25301l28.6145,16.6867c-0.200803,0.843373 -0.321285,1.72691 -0.321285,2.63052c0,6.46586 5.24096,11.7068 11.7068,11.7068c6.46586,0 11.7068,-5.24096 11.7068,-11.7068c0,-6.46586 -5.24096,-11.7068 -11.7068,-11.7068l0,-1.42109e-14Z" style="fill:#67b2ec;fill-rule:nonzero;"/></g></svg>